# xmcd
#
# Track frame offsets:
# 150
# 12411
# 24121
# 44553
# 58743
# 71373
# 83139
# 97096
# 108806
# 117312
# 130444
# 142879
# 156038
# 170925
# 188487
# 206160
# 218233
# 239752
# 257843
# 270334
#
# Disc length: 3751 seconds
#
#
# Revision: 0
# Processed by: cddbd v1.5.2PL0 Copyright (c) Steve Scherf et al.
# Submitted via: FreeRIP 2.95 
#
DISCID=220ea514
DTITLE=Tonico and Tinoco - As 20 Mais
DYEAR=2006
DGENRE=Sertanejo
TTITLE0=Moreninha Linda
TTITLE1=Cana Verde
TTITLE2=Luar Do Sertão
TTITLE3=Saudade Da Matão
TTITLE4=Mourão Da Porteira
TTITLE5=Cavalo Preto
TTITLE6=Moda Da Mula Preta
TTITLE7=Tudo Tem No Sertão
TTITLE8=Maziacando
TTITLE9=História Da Minha Vida
TTITLE10=Destinos Iguais
TTITLE11=Adeus Morena Adeus
TTITLE12=Chico Mineiro
TTITLE13=Tristeza Do Jeca
TTITLE14=Besta Ruana
TTITLE15=Aparecida Do Norte
TTITLE16=Lembrança
TTITLE17=Cabocla Tereza
TTITLE18=Pé De Ipê
TTITLE19=Bom Filho
EXTD=
EXTT0=
EXTT1=
EXTT2=
EXTT3=
EXTT4=
EXTT5=
EXTT6=
EXTT7=
EXTT8=
EXTT9=
EXTT10=
EXTT11=
EXTT12=
EXTT13=
EXTT14=
EXTT15=
EXTT16=
EXTT17=
EXTT18=
EXTT19=
PLAYORDER=
